<mxfile host="65bd71144e">
    <diagram id="Omz8NuV_Lej0NusEcTPA" name="Page-1">
        <mxGraphModel dx="690" dy="495" grid="1" gridSize="10" guides="1" tooltips="1" connect="1" arrows="1" fold="1" page="1" pageScale="1" pageWidth="827" pageHeight="1169" math="0" shadow="0">
            <root>
                <mxCell id="0"/>
                <mxCell id="1" parent="0"/>
                <mxCell id="33" style="edgeStyle=none;html=1;exitX=0;exitY=0.5;exitDx=0;exitDy=0;entryX=0.7;entryY=0;entryDx=0;entryDy=0;entryPerimeter=0;endArrow=none;endFill=0;" parent="1" source="2" target="28" edge="1">
                    <mxGeometry relative="1" as="geometry"/>
                </mxCell>
                <mxCell id="40" style="edgeStyle=none;shape=connector;rounded=1;html=1;exitX=1;exitY=0.5;exitDx=0;exitDy=0;labelBackgroundColor=default;fontFamily=Helvetica;fontSize=11;fontColor=default;endArrow=none;endFill=0;strokeColor=default;entryX=1;entryY=0.885;entryDx=0;entryDy=0;entryPerimeter=0;" parent="1" source="2" target="12" edge="1">
                    <mxGeometry relative="1" as="geometry">
                        <mxPoint x="540" y="300" as="targetPoint"/>
                        <Array as="points">
                            <mxPoint x="535" y="300"/>
                        </Array>
                    </mxGeometry>
                </mxCell>
                <mxCell id="2" value="" style="pointerEvents=1;verticalLabelPosition=bottom;shadow=0;dashed=0;align=center;html=1;verticalAlign=top;shape=mxgraph.electrical.miscellaneous.batteryStack;direction=south;" parent="1" vertex="1">
                    <mxGeometry x="600" y="200" width="60" height="100" as="geometry"/>
                </mxCell>
                <mxCell id="37" style="edgeStyle=none;shape=connector;rounded=1;html=1;exitX=1;exitY=0.5;exitDx=0;exitDy=0;exitPerimeter=0;entryX=0;entryY=0.57;entryDx=0;entryDy=0;entryPerimeter=0;labelBackgroundColor=default;fontFamily=Helvetica;fontSize=11;fontColor=default;endArrow=none;endFill=0;strokeColor=default;" parent="1" source="3" target="4" edge="1">
                    <mxGeometry relative="1" as="geometry"/>
                </mxCell>
                <mxCell id="3" value="" style="pointerEvents=1;verticalLabelPosition=bottom;shadow=0;dashed=0;align=center;html=1;verticalAlign=top;shape=mxgraph.electrical.resistors.resistor_2;" parent="1" vertex="1">
                    <mxGeometry x="322" y="353" width="96" height="20" as="geometry"/>
                </mxCell>
                <mxCell id="35" style="edgeStyle=none;shape=connector;rounded=1;html=1;exitX=1;exitY=0.57;exitDx=0;exitDy=0;exitPerimeter=0;entryX=1;entryY=0.5;entryDx=0;entryDy=0;labelBackgroundColor=default;fontFamily=Helvetica;fontSize=11;fontColor=default;endArrow=none;endFill=0;strokeColor=default;" parent="1" source="4" target="2" edge="1">
                    <mxGeometry relative="1" as="geometry">
                        <Array as="points">
                            <mxPoint x="630" y="360"/>
                        </Array>
                    </mxGeometry>
                </mxCell>
                <mxCell id="4" value="" style="verticalLabelPosition=bottom;shadow=0;dashed=0;align=center;html=1;verticalAlign=top;shape=mxgraph.electrical.opto_electronics.led_2;pointerEvents=1;" parent="1" vertex="1">
                    <mxGeometry x="490" y="320" width="100" height="70" as="geometry"/>
                </mxCell>
                <mxCell id="8" value="5 V" style="text;html=1;align=center;verticalAlign=middle;resizable=0;points=[];autosize=1;strokeColor=none;fillColor=none;fontSize=11;fontFamily=Helvetica;fontColor=default;" parent="1" vertex="1">
                    <mxGeometry x="660" y="230" width="30" height="20" as="geometry"/>
                </mxCell>
                <mxCell id="9" value="220&amp;nbsp;&amp;nbsp;Ω" style="text;html=1;align=center;verticalAlign=middle;resizable=0;points=[];autosize=1;strokeColor=none;fillColor=none;fontSize=11;fontFamily=Helvetica;fontColor=default;" parent="1" vertex="1">
                    <mxGeometry x="345" y="380" width="50" height="20" as="geometry"/>
                </mxCell>
                <mxCell id="10" value="Output" style="text;html=1;align=center;verticalAlign=middle;resizable=0;points=[];autosize=1;strokeColor=none;fillColor=none;fontSize=11;fontFamily=Helvetica;fontColor=default;" parent="1" vertex="1">
                    <mxGeometry x="515" y="390" width="50" height="20" as="geometry"/>
                </mxCell>
                <mxCell id="11" value="&lt;font style=&quot;font-size: 14px&quot;&gt;Nina Mathew&lt;br&gt;TEJ3M Unit #4-05&lt;br&gt;Switch LED&lt;/font&gt;" style="text;html=1;align=center;verticalAlign=middle;resizable=0;points=[];autosize=1;strokeColor=none;fillColor=none;fontSize=11;fontFamily=Helvetica;fontColor=default;" parent="1" vertex="1">
                    <mxGeometry x="75" y="115" width="130" height="50" as="geometry"/>
                </mxCell>
                <mxCell id="38" style="edgeStyle=none;shape=connector;rounded=1;html=1;exitX=1;exitY=0.115;exitDx=0;exitDy=0;exitPerimeter=0;labelBackgroundColor=default;fontFamily=Helvetica;fontSize=11;fontColor=default;endArrow=none;endFill=0;strokeColor=default;" parent="1" source="12" edge="1">
                    <mxGeometry relative="1" as="geometry">
                        <mxPoint x="535" y="200" as="targetPoint"/>
                    </mxGeometry>
                </mxCell>
                <mxCell id="41" style="edgeStyle=none;shape=connector;rounded=1;html=1;exitX=0;exitY=0.885;exitDx=0;exitDy=0;exitPerimeter=0;labelBackgroundColor=default;fontFamily=Helvetica;fontSize=11;fontColor=default;endArrow=none;endFill=0;strokeColor=default;entryX=1;entryY=0.5;entryDx=0;entryDy=0;entryPerimeter=0;" parent="1" source="12" target="30" edge="1">
                    <mxGeometry relative="1" as="geometry">
                        <mxPoint x="410" y="247" as="targetPoint"/>
                    </mxGeometry>
                </mxCell>
                <mxCell id="12" value="" style="pointerEvents=1;verticalLabelPosition=bottom;shadow=0;dashed=0;align=center;html=1;verticalAlign=top;shape=mxgraph.electrical.electro-mechanical.2-way_switch;direction=east;" parent="1" vertex="1">
                    <mxGeometry x="460" y="224" width="75" height="26" as="geometry"/>
                </mxCell>
                <mxCell id="13" value="+" style="text;html=1;align=center;verticalAlign=middle;resizable=0;points=[];autosize=1;strokeColor=none;fillColor=none;" parent="1" vertex="1">
                    <mxGeometry x="640" y="280" width="20" height="20" as="geometry"/>
                </mxCell>
                <mxCell id="14" value="-" style="text;html=1;align=center;verticalAlign=middle;resizable=0;points=[];autosize=1;strokeColor=none;fillColor=none;" parent="1" vertex="1">
                    <mxGeometry x="610" y="170" width="20" height="20" as="geometry"/>
                </mxCell>
                <mxCell id="36" style="edgeStyle=none;shape=connector;rounded=1;html=1;exitX=0.7;exitY=1;exitDx=0;exitDy=0;exitPerimeter=0;entryX=0;entryY=0.5;entryDx=0;entryDy=0;entryPerimeter=0;labelBackgroundColor=default;fontFamily=Helvetica;fontSize=11;fontColor=default;endArrow=none;endFill=0;strokeColor=default;" parent="1" source="28" target="3" edge="1">
                    <mxGeometry relative="1" as="geometry">
                        <Array as="points">
                            <mxPoint x="152" y="363"/>
                        </Array>
                    </mxGeometry>
                </mxCell>
                <mxCell id="28" value="" style="verticalLabelPosition=bottom;shadow=0;dashed=0;align=center;html=1;verticalAlign=top;shape=mxgraph.electrical.transistors.npn_transistor_1;direction=east;rotation=-180;flipV=1;" parent="1" vertex="1">
                    <mxGeometry x="120" y="200" width="100" height="100" as="geometry"/>
                </mxCell>
                <mxCell id="42" style="edgeStyle=none;shape=connector;rounded=1;html=1;exitX=0;exitY=0.5;exitDx=0;exitDy=0;exitPerimeter=0;entryX=0;entryY=0.5;entryDx=0;entryDy=0;entryPerimeter=0;labelBackgroundColor=default;fontFamily=Helvetica;fontSize=11;fontColor=default;endArrow=none;endFill=0;strokeColor=default;" parent="1" source="30" target="28" edge="1">
                    <mxGeometry relative="1" as="geometry"/>
                </mxCell>
                <mxCell id="30" value="" style="pointerEvents=1;verticalLabelPosition=bottom;shadow=0;dashed=0;align=center;html=1;verticalAlign=top;shape=mxgraph.electrical.resistors.resistor_2;" parent="1" vertex="1">
                    <mxGeometry x="310" y="230" width="96" height="20" as="geometry"/>
                </mxCell>
                <mxCell id="32" value="&lt;span style=&quot;font-size: 11px&quot;&gt;4.7 K Ω&lt;/span&gt;" style="text;html=1;align=center;verticalAlign=middle;resizable=0;points=[];autosize=1;strokeColor=none;fillColor=none;" parent="1" vertex="1">
                    <mxGeometry x="333" y="260" width="50" height="20" as="geometry"/>
                </mxCell>
                <mxCell id="43" value="Input A" style="text;html=1;align=center;verticalAlign=middle;resizable=0;points=[];autosize=1;strokeColor=none;fillColor=none;fontSize=11;fontFamily=Helvetica;fontColor=default;" parent="1" vertex="1">
                    <mxGeometry x="415" y="200" width="50" height="20" as="geometry"/>
                </mxCell>
                <mxCell id="44" value="NPN Transistor" style="text;html=1;align=center;verticalAlign=middle;resizable=0;points=[];autosize=1;strokeColor=none;fillColor=none;fontSize=11;fontFamily=Helvetica;fontColor=default;" parent="1" vertex="1">
                    <mxGeometry x="25" y="220" width="90" height="20" as="geometry"/>
                </mxCell>
                <mxCell id="45" value="" style="shape=image;verticalLabelPosition=bottom;labelBackgroundColor=#ffffff;verticalAlign=top;aspect=fixed;imageAspect=0;image=data:image/png,iVBORw0KGgoAAAANSUhEUgAAAUcAAADhCAYAAABbe3csAAAAAXNSR0IArs4c6QAAAARnQU1BAACxjwv8YQUAAAAJcEhZcwAAEnQAABJ0Ad5mH3gAADBzSURBVHhe7d0HjGZV/f/xgwiCghSpovR1KSodQaSIDSuWxKgY0cRYE2PXCCJq7C0xamLUaGzYUIyAgAVQpEiXIlJEqiAIKhYU0Z+v898v/8fxzuzMzuzsPMvnnZw85dx7+vdzv+fctsq//0MLIYTwX9wjjr/+9a/7HyGEcG/jgQ98YFtvvfXaqquuuuSfEXE89NBD+x8hhHBv43GPe1x71rOe1dZee+0l/4yI4yqrrNLWXHPNrp4+QwhhZeePf/xju/3229srXvGKduSRR7YNNthgScwEcdx+++3bs5/97Lbddtv1yBBCWJn50Y9+1I4++uj2ohe9aGpxfOxjH9ve8Y53tP33379HhhDCysynPvWpLorPfe5z/0cc77PkM4QQwggRxxBCGCDiGEIIA0QcQwhhgIhjCCEMEHEMIYQBIo4hhDBAxDGEEAaIOIYQwgARxxBCGCDiGEIIA0QcQwhhgIhjCCEMMOVTeUT961//anfeeWd/7tlf/vKX9o9//KPdfffdPf6+971vW3311dsDHvCAts4667Q11lijp2O/f/7zn30/+3i6rodI3u9+9+vxwvJE+YS//e1v7c9//nPPV/6rrbZau899Zn88WNJkvW533HFH++tf/9rz0lZToX3uf//7t7XWWquXR1mWd1vMJfpU0Kbq6+nJ6qIO021XbWdcCPrIb2nkGaJhRTDVU3mmFEeD9+9//3u7+uqr2xlnnNF+9atftZtuuqmLAhj4pptu2nbYYYe29957t4c85CFdLO+6664uGtdcc027+OKL++Dfbbfd2iabbNLjRx9FvjwgVvK/6qqrev7KKP/111+/5z9bgSzxveyyy9p5553XrrjiinbllVf2ek/F5ptv3rbddtu20047tV122aULwvJui7nCMNGmf/jDH3qbqq82VRdtKkwHbWRcXH/99V1kHVCMH+0Swnwz40eWMQTGzxiuu+66dvnll3chII4Eh1gKvvtPnG0MeMLEu2AEvv/+97/vBsXjXJpnNVfIn4ArzwUXXNANWV38P1doI97Tbbfd1n772992g5ePtjjnnHPaj3/843bmmWe2Sy+9tIund/TccMMN7ZZbbull0xZLjktjgzGhH//0pz/dUw//zaQe6m08XHvttX38aBu/Q1hoDHqOj3nMY7rHaPCedtpp3fhNTU2jNtxww3umQIyDkfAAbL/FFlu0fffdt3tq0vP/rbfe2r2KjTfeuE+/eUrilieMV75E6pRTTmmLFi1qT3nKU9pmm23Wp7Wz9Rw1GSMnjL/73e/6Y9YZuHyFiy66qHuUvKFdd921PehBD+ptZ+lh3XXXbRtttFEP2mIupvnzBWE0HXbAU2d9ajyox3Q9YONE+zhoSMMBy0xl9913X7JFCPPHjKfVpsiEj9f1ne98p383eB/5yEf2VymYnoIw8hwvvPDC9vOf/7wb/MEHH9wWL17cRajWp6xNEgcG5D8GVh4meJm8MFgXNA0nItbo7AtipBxEyL6MzLYlduKJtn2lb7tzzz13UBxty9BtQ+BqOlxrgpYLBHnPRMilR5RPPvnk9v3vf7+32ZOf/OSeL4EsAVEP7SLfag9BnuqtHspiG2KrvsKSrupltI02FQrese21h7zs779C+tqnQmG72tYn1Ns2tY8Dm7IKtlMeYi9Oe/Ig1d/atHr5XWvS3kskHdvZ76yzzuoHD+n4jzg+6lGP6mmpV3moxFN95Gk7aYnXRtKrfldm6dquxpL/bad97DPdaX+4dzFjcTRQDUzieOyxx3ajFPeIRzyiryuWYZXneP7557cTTjihG/QTnvCEts0223QD5lXxEgxk61P2M9hNd03DfQdPxLRUPgxpxx13bPvss09fo7OvshHDX/7yl+3000/vHi1v1ra8M/kyJtsrI2PwW7mGxJFRKrd11B/+8IfdqCG+1gR5fPImMtMVyOmKo7pbtyPMxMTShWnmzjvv3B796Ed3D/yhD31o32Z0TZPBY+utt+7ltG6pnOV9qq/t1V/Q9kKhbYSHP/zhvY2hzeUj2PaSSy7p/0vTtg6ItvVeIf2ljrZVpjpg6hsC9bOf/awfJI0dv8tL1pfKaTt1/va3v91OPPHELmRE64ADDmj77bdfz0fd5GPsSM8BTp4OHmYk2kYbyddsRhrKo320ZY0l2zvIG3dbbrll93JDmMgyrTmCgfDOHMkNuptvvrkPVEdm/xmcEmPIBvWDH/zgLlSO4I7kTt4wNoZkwNvPALb+ZuBbkxNHGAiEAU6QDXZrmoRGWvaTt/8IJHGxveA/efBGTNWUk2GUkIyizAy0PF7rg7WGWmtg8q71U2UdSme2EA91VW71VRb5q68Djvgbb7zxnvrWeqX6Mnz1PPvss3u8dlVfddPeJYglGPaxvzx+8YtfdPEq8dBHDhTqqiy1fQXtoY20ve31g+2lR4iVyX+EzH8V1EWa8vHbp9/GjvaXhjpqX+X3W5CHoO7qXevcv/nNb3p59EuNJ7/t6yCo3rZVb3VUD2mUqBpDIcyUVf+jlkf68s53vrNttdVW/Sju6MxbKsMRTJ0NONMUHiARJJy8Id8d1Xlo9q2pFhEysHlr4ngzDNLgtZZpmz322KN7II7yBFa+vIlK15qWQW7gK4eBbtrOI+PhmdoRFHHK9rCHPewez5ZRy5/XJn/llX95oMSfl6zO3lurDuIJjU9lIP72mw4lOPJURwcL+SqXNigPj6iUQKkPD+0Zz3hG94jUjdETAeXnGfGSnv70p3cPbK+99urtIg1lE0xf/UeICJp2la6zwPbTTjw/9VIuVw04oJWn5T+CphxPe9rTuhdn3VnbKos+8F15lUf9jAUzBF5xCZN2L6//8Y9/fM+/rmCQjn7g3UOb+F5jTj+YCciDgDvY2U97mHYfeOCBPV7dasrNs5entiSQyqad5W+mUF4jD3a6fRjuXXAyzC6NW+PQ+CkGPUeiQMgMZoJlSsLoGZ9pG49Por7zfIgggzPVs61BW2uFQzBc6RmwxJQ4PvGJT+wGSUysbxn8pmA8DeIob8YsfdNJ2zNixkMgCM/SvDyGxztj2MSAoBAkQvvUpz617bnnnl0glU9+pu4MsTzpuUYb6QzCddBBB/X8CYb/lNUn4/a/8gnKqo3UlddGdGw7iraQtnTt86QnPeke8deu9jHt1Z5+Owiqp74mKvbxqZ21t7FAWCe2g9/aSptqT+Ul5MRMGgRN2Y0NiNdXxoklBANS/zmgyVs+yuVAR4CNI2NDOtrHd2Ks3A4eBFHdlc1B1UzGeniNJ2Ivb/mGMFMGxdFAI5AMw1HYu6y919XAd1T/5Cc/2d773vf2Obrw2c9+tgslkWRkS4P48VwIozx4JXWhNm+Lp8JrMOgNfsbLAJWLp2Ff2/MapFHp1BrhZBBkU0CfysCjEHyXn3x5O9IiyrbjjQwJw1wgT3VgvOWFQ/2c9ScygjoTPMF2tlduYjKE9tQmhML28iBK6icsTSzko2xEiwdIxBwoJ8tvCGkoI3EnssYRYZsM7autCb5+1ifEXN15mcS+PHF974BJJEvY5edgZwz4tL3/QlhWJhVHA8ugNHVyJOZy1kkKgsXjMO1zlOdl1dqYQWuwTuXFMTIL9USIAZU4GNQMmzETCl6JvMrLIVKM1D4Gf3kKQhmFsk+GcvGaynOqtSrrVBb+rWXxVsXLz3TdPvJdHii/+moP9a2yqwsh0Q7y18YuS1JGa32mkUSBgA9hPx6T/pNuHUgITh0IUOIsP/87AI3mIw9iWgcQfTQR6YsnZNpJWa2JSscU37Rd/XjEyjMZxFFdiaN09K9y6W/9Kh/9XOva6m5slOdovMrHPurr91RjIYSlMa1Dq8FGyKx3vfKVr+xntIW3ve1t7XWve12fDpuq8h4ZB3EhbJNRA59hStvvoYFs0DMWHpxPnsXSps7TgcFaI/vud7/bPvrRj7Z3v/vdfc31wx/+cPvMZz7TL+AmnKPiuDw8R0ZOWBj1aP3VVRmtiyrPRz7ykV6+d73rXe0973lPO+qoo/qyhjYfKlel63MqCDPREqwN6j/py0ebfOtb3+ondswIhijhNTU2BvSPtvvc5z7X9//EJz7RvvGNb/S2VqepxkSJY/V1iV6hfYi5A6n2KsEsiCEBV6cS/xBmw6A4GpQGKS+Qd8iLYgSmSKZ71qME60DWdkxFDWjGyqiJyujAnohBbXALS5v+MJrRMBdIh8jyPgh5rW/yJhkwI6vLb0q4l4cXIm2GzpilX+VSHl44z0twwOHVKWN5tsRjMrHh4UlX+lNhGyc51NU6IOHR5/IgiNYRnSHWrzV9HUWZ5cFLtb7Jy9SXxoLyGjt18kmQtvpN1o/Vx7XN6HbVB4I8JnqGvmvH6dQ7hOkwqEoMz9qcyyicfDHtJJATMQjraM3IDEwGS3TmwsMjotKsYPBPJaTTxRTQ2fHnP//57a1vfes9a6cVXv/617cXv/jF3RsylZsvT0SbaT9i6Gyt787iHnLIId1TP+KII9rhhx/eXvCCF/Sz/ERtVCCWBfsTNydInve85/X6y+ctb3lLP+gRtbo0hyhPpETJlNnM4tBDD+2zibe//e3thS98YS+/g+Wpp57a01KnobFR6Yx6hqMiRyjLsyzvcrKDQwhzwaDSGLwGIg+C50AkeRIG5KhHWEd5/wm+C6NH/NlQHqbpd62fMVAenvxM43g0/mMwyjxV3oyN8RFza56mg04UOJPrjC6vmEg4c8oLki8vbKKXsrxQdvXiYREkbenEiktSeOjO2iqv8k2cVi4L2oyHR7zk7WRHzQbq7La21cbaXHuPUuPEbIGHqG2dIVZGaSi38tuurkucjBJHwqjNlcd4s488tIsDtHHo4K3utpurA2YIExkcVQYdATGVJpB1UTBvcvQkgO8Mw7SLZ2E6aKDaby4GbIljLcwzGBc+K4u8GWxN2UzhGDEjmgzGa+1U/Wyv3IxNOgzYOiNP2V0zxx13XL9MqYR4KtGdL5TF5UUOWE6aEKTZlEt968Lwn/zkJ12QR3Ew0ZcES9tNnK4SS2VSFreZai/jgXiNIg19KB1pDI2NUXFUJ4KtrnWhOy9Rfzlppu/NVKyrStd+Icw1gwpmAPOaDECXgBAphmPwMyQnCgTfLeIzUiJmWwOWIc3WqwEjUhZCzQMxhWcwThLI24XpykWUp3OyhuEpI6FlVDwRhu1undH61Fl3Rr60NOcSAqHO2k85eUzWHAmYWx3VW31riYNoE4plnV7W/trU1Qbqrh3qOlZCp+157QKRG4WIaR8CSWhde6gtBeWVpv+Jl8uTpFUen0D06sBb15Tq47rkSB/UmKvlHfXXPtZIef9Doh3CXDB4h0xdV8cYrLkZfO6isA7mbCTPylXlBq0pNyNxF4Z1MIPWACdWPM2hO2R4ozw3Bmd7RiM/nl95gIRJ3k4CEWpp8CbkRyR++tOf9rQZHqOSrjU4+dgW0rINMfS/fJRNfYg5gzzppJP6epj0XNZDeKRjTdJ1fvZlyNOZViuzcshzOnfIKIc2qcuaCIdtCJZPabgHmUAQG/WxDTHUNg4Y2ka9lLNO4lR6/hf0hX14XdLUv9rVAYII6Sf/E5/jjz++9y2BI3y2dTmXM9p+m+qqHy/OsoT6lddXVwAoK5GVnwOXM+GudbS2qd2JKeEjwPKB+uobZZeW79rJNi4LckcVEYXrLq1l6ifbEkwzAG2pPdTdgT2EpWF8zegOGYOd4fICGYBQIllCJDA6/zEwDzOwgM/jkYGBWuLGOAx2Ymvw2p5hl7HITygxNrgN/BIm+0rDPj6JTRm8/O0nHYZie5/lyTJsIqU8tlM2+WoM3oxteVCETVqMU5nV2ZqbfaYjjCBc8lV+Z2+r3hPFlSipn/TlZ5tqAyJRYm4b4iZdogTld0BxcbgySkue9tN21iPVb9TTs3/VzT7itQcB8V37yEs6+lVbEGhpEEf9pYzyFpRb+dTT//b1tCblhr5RXvWxvXzrOkflVGb7CtJWTn1pe+WyrbVL/WNbKI+xo031qTZQfm0rX/+rizZQjxBmy1Jfk0A4eHK8C16VQW/wg8ERFwZsoBvIBqv9bMND4DnYjlCJI67SkCajMLDLuBmlfRiC/RkWgbY/r4W3oRz2LXH2vzU4XizDd48yQ5E2T1P+0pG//+RjP3nxNnhA8oNyME5lYtC1vbaZDgxc/eRpSkoMpCWdUYHUjuoibXVj9ELFK4/y8WyVTx2hLRh/bWdf6aofkeKRy7fSUx9BH0rDyRfxREWwP+H0n1AnXyAPbSBIS/rqVvWzrTaVjvZUZp4e77b2r3JJQzvIy//qpm/UrcqjXrWGKD1jRF+Ll7Y6SE9ZpGd77VfjwrhRH21tG/0YwtJY5tckrGgUTWBIDJ/hCkQIJX5EhGESR7e7lcfHeEIIYTJm/MiyhQJhJITWmqwLfPGLX2wf+MAH+vqo8PGPf7wdffTR3Vtxa6PAQ+HNlncVQgjLwli4VkTS9MnUypSrAgE0fbLWZL3T+phpXE3fQghhWRmLabX1pFoTq2veYI2Jl2jNyjqUNanRtb0QQpiKsZ1WEznrhnXW1OVC7mIh4oLvLulwyY3F/EynQwhzRc5YhBDCABHHEEIYIOIYQggDRBxDCGGAiGMIIQwQcQwhhAEijiGEMEDEMYQQBog4hhDCABHHEEIYIOIYQggDRBxDCGGAiGMIIQwQcQwhhAEijiGEMEDEMYQQBog4hhDCABHHEEIYIOIYQggDRBxDCGGAiGMIIQwQcQwhhAEijiGEMEDEMYQQBog4hhDCABHHEEIYIOIYQggDRBxDCGGAiGMIIQwQcQwhhAEijiGEMEDEMYQQBog4hhDCAKv8+z/0L6us0h772Me2d7zjHW3fffdtd999d/vjH//Yfvvb3zabbLTRRu2BD3xgu9/97tdWXXXVvvNCRbl/97vftX/9619t9dVXb2uvvXZbd911233ve98lW0yP22+/vadz5513tn/+85/tQQ96UNtkk016mve5z7IfV7StcMstt7Sbb765rb/++m3jjTduq6222ozLOMRf//rXHn7961+3q6++uvdfoZ8f8pCH9KBN1llnnSUxy4a0//GPf7S//e1vva202YMf/OBeH+NkvsaK/tHvf/rTn3p51NOYVccQJuNTn/pUO/LII9tzn/vc/rnBBhssiWlt1f/8caQv73znO9tWW23VDjjggPbQhz60/f3vf++GdfLJJ3cje8ADHtDuf//7d3GcCwNenlx77bXt7LPP7p+MlZCtt956XXxmgvr//Oc/bxdffHEP2HTTTe8RRwa4LNx1111dcC+66KLeviAm2lVY1nSLW2+9td1www3tmGOO6Z1/yimn/FeQtwPGGmus0QV/NhDHO+64owujtvrpT3/ax4qDiDaar7FivBqnl112WbvqqqvajTfe2IVxdLCHMBE6wSZ23HHHrn00rhh0fwx4XhdvgKEJf/nLX/rR2f8LHYbyhz/8od12223dm1CPmZSbeP35z39uv//977vIMDQent+EQPqj3thMsS/PUR5EhbejbWeTJtT1mmuuab/85S/bOeec0+uh0x/5yEe2XXfdte28885tp5126uJOQH71q1+1Sy65pHuws0FdtIkD0U033dTbyH+zrc9MqPGqLZVD/ytTCMtK1hwH4FkRVkbG2EpcTdfq93wa/nQh4L/4xS/aWWed1U499dS22Wabtbe85S3t8MMP71OGI444oh122GHtEY94RPvNb37TLrzwwvaTn/ykC2oI4b+ZdFrNk+HVXHHFFX3DLbfcsk9RTMV4kaYw1113Xfc6TD95Kuedd16fKjI2Xow0TMNNEwmK9K688sp2/fXXd+GRBrfWlNV3R3trVKZiPokRL4TRy4OnJf+aqllXq3U7HgtBI16XXnppO+OMM/q0Wp6EzFTPftNZL1R2a63Slqc62H+ttdbqdfHblG1Z19O0C69O+dSLiG299da9bqb+M51W89Kkd/nll7cLLrigt5tpM09xt91261Nc62/WNk2jbSs4CGg3/WqbEnz9Iy3tW/8pl3LzxpTb9FWfytsY4YESW9+rz7WzOhknPFV9LkibiAv6Xp/Jx/byMb70pf2Uxf9rrrlmT9NBSpxy63f9qxz6zLReMP54+aPLQMoRwkSmmlbPSBwZF3EhHNaWGINppwH5zW9+sx177LE9I9M1hmWgb7jhhl1ECJ//eTSmfQav/b72ta/1dTdGwigYLxEyqKUhL4bIGxJvbU4FGAzxkibBVU7bykeFTzrppG584gkBsSBw01l7VG+ixegYpRNRTlwwTHHyJ2hLS2cy5lociSGhU19tusUWW/STattuu21vT+IgTUFfqBMxtFyifQinUNuce+65vU+UUXn0ubaTj4OFA8+PfvSj3h7S1jf6nTATPtsQQW1uzEjvZz/7Wc9Pn9n2+OOPbz/4wQ/6d+1hW+2q721D4KTnYKv99buyKdPo2iIPWLkIpvF33HHH9bFgKcT2ype1xzAZM15znApH+FpfcuQmSAbsNtts09ezHvawh3VDYvgMpbwv+zi6G8wEwZGfoW6//fZthx126CJqkNeAJ4TSZfS8R2Jqf/+VN8OobOd/5RFXhkRwiIRybb755t34Gd5UXqN0eULSJILSt590iJf9ia+gXOKrLCsSZVH/ajNCo8wOBNqYSKDETz3USz8pv/bVH/rJb5/6TbtWPSHOd56evrcdiI/8CC4RcnDVXvKXn3LZnqgZEwRr8eLFbbvttuv94yDo4MhLVBbb+0876/daxhAIsrGkDOJ9ykMZ9Ln0lEUZ/Fam0QEfwnSZ1ZpjiZMzuIceemh705ve1F7xile0Rz/60X2QEzpG57ttDepRceHZ2P5Vr3pVe9KTntQNlhfIK7APoZoJjJHR7bHHHm3//fdvBx10UHvWs57VnvCEJ/TpJYPhBU0Gw1NORl/iSLSJK6NjgAxVPOMl5gsBZeGVad9aAuDp+j4EwSyPcNRD1+YzQRryevjDH97beu+99+4nfw488MB28MEH9wMfL5UYaltjgUe4aNGi9uIXv7i9/OUv75+8y1qO4QEaG9NFXexvLO233369v5XFZWk8gT333LMfLEOYKbMSR8bBU3N0NiXnNTIIR27eiSM6gSMyjvp+89wYlH1M1Uf3I44MtdYOGQmjmi6MUNrKRChNKYkb4/GfaetUniOvq7wWQsPwCKK0BB4ZMVEnXpXtZlK+5YXylEetfsqtLSarq//1HeEqb1p9Z3ow0p/ykoa21lY1lR711G0niCNUrrHkWfIc9buxQKi1vYOSdp0u0q266CP58l6VQXCQmOqAGMJkzEoca+2q1gFrgBqcgoHJSAvfbUOweA88Ob8JWk19DXbGQRx9ztRgZwNPkPdU0zhGxaAF9VNO32Eay4NcCOI4UwhW9YX6TOZhziVE1DSXl+kice1pfBgnZh5CeZczEccQlhez9hx5Cwa57+Wx+E5Y/CZ2hd+8NwZZnpj/BAZaR/jyNn0SqfmCKNbJACeNTjvttHb00Ue3o446qn3lK19p3//+99v555/fT2JYFyWQ4yiO+oRAlkj6XN7Io9aDHWRqrOhzfS/oaweo+TwghjAZsxZHAmf6ZLAvDQbCCHgsPAff58MwpwuPxYkD4nfmmWf2M/Af+tCH2rve9a5+neCnP/3pduKJJ/bLlqyNWueLIU8Pgqzfp1oLDWEhMStlMuDL8xv1ECeDZ1BeoTWy8gx5XzwGa4zWvmqNcmnUGuFM1yYnohzyJ3bOpvq9yy679AV+C/tOMPh8/OMf3xf7rZNac7S9k0s1DV9R8MbLe9cm2kO7+D6E9rWNZQHld4CyZki8psJ++se+y+LhVdlqP31WaWpD35eGdl5a/UKYC+bVbWMUBjYPTWAUZSD+ZyD+Z3jTERvbWZtkKLMVR3lb73IxM6/2Oc95TnvNa17T3v72t/eHcQjuLnHHCdGsKbhLTWab/2whatbuTFFLOOoynCG0t/KXwDu4WfOr9dTJ0N76x77CdMSs0J+Vp373W7sTOGla65X+0tDOVb/pbB/CsjLv4shACFp5XeU5OEPNk+H9WJMS6uxyxQuMiDExfOkQNP/PxFAnIn3GJigDsXE21eUhzqg7+y74LtSF1epiGq4cK1IciaL2IpDOBGtXF127nlQ7VdvUgcidJy5+1Qf2s27sJJmDQkG8tLVLfLSJ3z6dTZa+PpiJ5yZv+0lPeymHssnDb5/63hlm/W57/9X1lgTR9trcAUm/+y+E5cW8iiODMLgZCVEhajXVYgSMgTDVSR7GyqspEWIQToLYjmFIxx06jGU2Uyz5l/AySsbJSOtSlMJ3BlwnEIiqcinHihRHZdJWTna4LEp5TjjhhH4bpbabKI7WS3/84x93oSOKwsRpNTHUJk48ESe/iZg7T/yv/WfS5g6M+o4wS8++1YdC9b2rHwi2stpefiWQxLkEWr9HHMPyZF7Fkbdl4MOAd1vZN77xjfad73ynezIGO+N2ITeBJE68IUZv2scw3HLmUVw+GXmd/R49IVTeJ2OWruAkC6MaMmj5MjZC4iw6YZQmARxdSyWO6iCOETNgZbAvT4rwEJH5ps4+aye3QWlDHq67lL70pS+1L3zhC+1zn/tc+/znP9+/WzogRLxhF8zzNrWZugna2vWHcNbeSSj7aUciBn1TVxfYRz9AO2hrt5fWrX2EscqojdziKD1XALjlT/srt/IQapd0VZ87w03knRxzy6FbF5WBmFeekLbf6qE/3OfvygL7EvMQZsqM7q2uAelITxQMeiLhf54eIyE+vCn7ESxp1lqW/UyrGIz0GZ57YQ1kA5hBuLvG7YTEkQETOdsSRpfYuKfXPcQMgMdX11MyDkalnMogL4bhHmteByOTFuFjQKPwZuoBCOpnOk1gbD8qjmXgykIETEsJgbTVk5hKe3SfIdRHGefq3upCe2kPwqX9nFUnioTKPe3uIfUUHl6mh1J4Os/uu+/e20TfyVef+a5Obvc7/fTT+0GMp6ncxEv9HQS0EUGrcruzSZ868BFG/aJPpcMDlK+0Cdy3v/3tnrbttbeTXj4JovLblgjyHomcg6H2MkvQzrYjzoI+1/dEVrw6Slt95OeAp9whTMQBf7J7qwfF0YAHAzC4XLRb98oyBBAJwujibeJoQNsWtR+RlSaR4WUREwPc4C5DMGh9d3EwY3XXBGM16BlqeYR+E1llsL3tXEjOQHk+jFB+PsvA7cPIVZzgyo9oVDmLWthXD0KlzNKZKKJgcOoi7RIhZdAO2kbeK0oc5W1/nzpZOaWpnUaDW+rcB6/diGm1R+VbXhjUUd2MCc+E5FHqM/vqA2ODKGsPB0t9ZFt9IS9tSigdFO1ne9v41G7Sc9uhPtLvyq38ylD5E1ljrbxiQXvpI30qL/2M2lecOrrtU14VH8IoU4nj4GsS3JfsbwZcZxYJGiOyHSOo/xmj/w1K+I/x8+psy2h85wHw+BSEoLgshoHZT5CGPBhl5VNIT35EzKe42sen31UW+Y2W3VTZdgxY/JD42FbaxAS2UZaJ2xXKUwInyFP6jHKyfUbRHjxPF5nzhE1tH/e4x3URkM500pgK/SPIQ5iIPKqd1XUi2kHQdsoqrRoD6lrxvgtVXtsK8J/0tatpuSf3GIAElSA7yEGbGZDKpC9LFOU32ufau/pcqO3kowz+U07bqbP9/F9lHqpnCFO9JmHSNccadI7yjroGWQ1eA80RXdyomAni7Wcf8bWfuML+vEkG4gjPK1Ao24sb3RbSr+1tax/bE1n7jJZF/vLzvTwO29pfuSamjSqPNCqdoe0K5bGNbXk78p9YxxWJsqir9uE1TQzasQ4WQ2hDdVQ/3p425KFVXfWttIma7eQnaEOeolB5SEu7CNVu0qmySFt6ymLbwva2FacM8jd1tq//lEOQZ42Z0fSl67PiQ5gpk4pjCCHcm5kXcXTkdpS3cO6Ei7tPeBcTvYV7C7wsHrX22GefffraXHlhC8X7nC3qoW/VU/3U05Sa1z+6rhPCQmVelKmmeC7R8dxGT6k27WE490ZxJIKmnNrD7YiegWgKu7JN/xwE1NOJNvV0QsfJJ3UNYaEzL8rEiyhviWFYB1qZvKSZMupVWT8bXZtb2VCvWjusdc574wExjB8ZpSGEMEDEMYQQBog4hhDCABHHEEIYIOIYQggDRBxDCGGAiGMIIQwQcQwhhAEijiGEMEDEMYQQBog4hhDCABHHEEIYIOIYQggDDL4mwfMWvXTq+uuv7+858eIpeOyY94nUI6e8xEp8vZHO05/Fe3YjvBpBvBcywZOZve+j4r1US3y9YtMzHsV7ag+8LEl8PerfE73F1/MA6500HucPT4wW7+kv8KIn8fXofk+SFu8pMfACMfWseM8aFO9pOfCiMPt75D48Zk28R7DBq2LFe1UC6n0m9egx702RfsV78rV4TySCl07Z3+P94XFe4j3BCF4iJr5e3+C1EuLrqTb6R/oVL06op/uIE5Z0ce8b8fBfxUOa4uQBaYqTB8TbXxmhzOKVEcosXh3hdQXi1RHaRPraCNpEvDaCePtrY2hz8doY2ly8PoJXJ4jXR9BnVT91MBZCWBpTvSZhUBw9hNVL4b3FTTAI4cVT3i9TBnTVVVf1+DIQLzMSXwbiDYXeelcG4MVI++233z0G4M199q8B7mGo4okYvJlOPJGDl2SJrwp4xah4Igov6RJPhHHRRRf1eCINz00UT+Rx4YUX9nhvJ4Q38on3eC146534En/PIxRf4u6tfOJL3L3JT3yJt5f3iC/x9mIr8SXO3quifUp899prr95+Ja7e0iee0MCDgu1f4uodNNIvcXzMYx7T40s8xQmFOAH2EScN2EecNCBPby00DiBP8coA4qZsZ555Zv9NvJT9UY96VP9NvMR7DSscsOzvfTlwwJO/NyTCAVH8brvt1n87oIr3Zko4IIt34IYDtvgLLrig/9Zn8vesUHXwDMkQlsaMxdHA8lY84kfgeIjg2RHAEheiJL7ERcLivbsFRE0a5Xk6mosv8eG5iS/xIYriyzMlmtIv8eE1ePNgeZa8CvHlWRJd8SVOvBbplzgRbemXZ0nUxZfnyCsSX+LFaxLP0OGgIP3yHB00xJe48VrEl7jx+sSX58izEV/i5lWzyl+eo4OS/Mtz9NY+8SV+Dk7iS/y88lT6S7qwv5FPfHmO4oRCnAD7iJMG7CNOGpCneOMA8hSvDFBm8coIZVa3enMlcVV2bQBtYn9tAG0ivg682lR8ebbaVHx5rjxD8XVg1mfyrwOzPhNfoTzUEKZixuLoCG3wVyjjYyAVwIBmGs+IyngXerw428wmXiiWFi/ONrOJF4rZxKtTtU8x03hxtimmilenah8sS7y42sZnCEtjxuJoehJCCCs7y/Rq1hBCuDcTcQwhhAEijiGEMEDEMYQQBog4hhDCABHHEEIYIOIYQggDRBxDCGGAiGMIIQwQcQwhhAEijiGEMEDEMYQQBog4hhDCABHHEEIYYOzE0RPWJoawYkhfhJWZsXieoydxe5q3p057NYIniHuMvieTezK1J2gL9YTvhY6nW3sKuCeae++OJ6cL+mCh4+GyntDuKeyXXnppu+KKK/r/nvTtFQZeRaEu9TT3EBYyY/88R4/M9zIu7ws56qij2sc//vH2vve9r336059uJ5xwQn/XTL0qYRzwaH/vZlEfIuk1FKNPzF7IKKd3Anm3i75497vf3cP73//+3hdee1CvxQhhnFnQ4ugx+N4VQkC8TInH4gVML3zhC9sb3/jG9vSnP72/O4SxEkjvK6n3vYS5xQSj3jbpxWiCF5q9+c1vbq973evaS1/60u4teimXOO8Xqnf3hDCOjIU4MkhGV+L4/Oc/vxvkU57ylC6OpngljvWyqzC3jIrj5Zdf3sOOO+7Y3vCGN7TXvOY17SUveUl/cRqPWBxPv15cFsI4sqDF0RvsGJhPb6fjmXjtqjUtb6NjjN4o6G2D3nQo8FaIak4OzC3aU19406S1XW8J1BfaXr/UuqnAe+fN1/vKQxhHFrznSOyIowV/74seFUdGSRwZa4kjA7ZfmHv0hfVE7e0VqU6IEUf9ok+8stcBizjy5uuVuiGMI2MxrS5xJIg+vXrTmV3fGaNPXorAMOM5zj3akziaWmt7Qqg/oD/0QQml/rJdptVhnFnw0+ryHL0I39R6VBxrqu0/Z6uJozXHiOPcU+JoWl3iaL0X3hGtD3iULk/S/sQxJ8fCOLOgxfGuu+5qd9xxR5+eZaq84tD2DlAOQPojJ73CvYEFL468QUY5LtcBroxoe31hmqw/fA9hZWdBi6NpszVFUzVT6bBiqDVF02bLGPolhJWdBS2ODNICv4V+61oTsQ5WAdbChDC31JpiXbbj+2i7I30RVjYWtDjyWHgrjNFUzgK/9S7rX4zQfy4t8UlEBV5NnbAJc4u+cCJG299+++33nI22JqkP6qSYk2fuGa+z2SGMIwteHJ0RZWwEcVQcrYP5PiqOvBoGGXGce7RniaO2L3EklMRRX4yK4+jZ7BDGkQUtjoyMQfpkfM6Uui3N5SQljB7i4BKTDTfcsAcGSRzD3KMvrAFrbw+YcP90ncHWJy7f0ScOUJtuumk/YIUwroyF52iqzHNhlB5XJhBJxuk2NUK5ySabtI033vgecYznOLeMeo48d33gjqRbb721f3ffO4Hk3Vub1B9OpIUwroyFOG6xxRb9GZPE79xzz21f+cpX2oc//OH2ve99rxsjQ9x+++37/b5Z51o+EEfCuPnmm7fFixe37bbbrl188cXtgx/8YPvYxz7WPvvZz3YPct999+3xbi3MtDqMMwteHImd+3j33nvvfh/1lVde2U466aT21a9+tZ1xxhndaDfbbLO2aNGi/pnLTJYP2tmUWl9oa+Joav3lL3+5ff3rX2/HHnts9yj107bbbps1xzD2LGhxLAgeY9t5553bC17wgvba1762HX744e2Vr3xle/KTn9y9RlO5sPwhktYTPfX7kEMO6U+OFw477LDeF8TTibEQxp2xeE3CysZZZ53VTj311LbRRhu1rbfeuk9VLQnkRFII88vYvyYhhBDmm4jjCmD0LLzLlIbu/gkhrFhilSsA63L77LNPX7dzJt56agQyhIVFLHIF4NIj78JxIskZdmeBrfmGEBYOEccQQhgg4hhCCANEHEMIYYCxFEdPgXGfteDJMJ7Ks+RyzbGgHu9VZR/XV0Boc0/oUQ+3DvpUl3HqixAmYyzF0YMOzjnnnH774AUXXNBfND9OL3PyJKHTTz+9l/2aa67pT7MZx9dAEHai6H73Y445ptfHA0EctEIYd8ZKHN27y/Cuv/76duaZZ/Y7TS699NL+jmRP5hkXPMHmvPPOa5dddlm78cYbu8CMk7elrDxE5fZUJHU58cQTe1/krYNhZWGsxNEjss4+++x2yimntJNPPrldcsklfXoa5pfyGIkij/H888/vj4+LxxhWJha8OPJSGKMnTPOyLrrooj5946WYno6Txzju1FsIeYfa3sGJB3/11Vd3sUxfhJWJBS2OjNH0zaOxeIvWtoikBzbsueeebccdd8zTeOYJByleuvXe0047rX3ta1/rT/12Mfs222zTb9hPX4SViQUtjrW25X0l1ud4K26z81zHnXbaqRtlnhk4f1hLJIieqemEmLt69INbINdZZ508aDisVCxocSSEHszgXmSPUzvooIP65w477BAvZQXgtQeexn7ggQe2l73sZe2AAw7oj1pz+2MIKxsLWhx5Jp5gwyBN3zxlevfdd29bbbVVPMZ5Rl9o8/XXX7/3wTOf+czeJ/omB6qwMrLgT8iEEMKKIOIYQggDRBxDCGGAiGMIIQwQcQwhhAEijiGEMEDEMYQQBog4hhDCABHHEEIYYCzFcbXVVuu3rLmfd+211+53buTVpvOPu2bc3qkvPAxEX+ib9EVYGRjLUbzhhhv2W9j22muvtvPOO/f7e/PQg/mFMBLCtdZaq+266679dkJ94fbCNddcc8lWIYwvYymOXoK/ePHi/gAKT+bhtTDUML/wGt1XvWjRorbPPvv0vuBFrr766ku2CGF8yfwnhBAGiDiuAKyRrrfeet3L8p0HZpoaQlg4RBxXAJtttlmfhlqj23LLLfsyQcQxhIVFxHEF4JUC1ku33nrrvl7qpEbEMYSFRcQxhBAGiDiGEMIAEccQQhgg4hhCCANEHEMIYYCIYwghDBBxDCGEASKOIYQwQMQxhBAGiDiGEMIAEccQQhgg4hhCCANEHEMIYYCIYwghDBBxDCGEASKOIYQwQMQxhBAGiDiGEMIAEccQQhgg4hhCCANEHEMIYYCIYwghDBBxDCGEASKOIYQwQMQxhBAGiDiGEMIAEccQQhgg4hhCCANEHEMIYYCIYwghDBBxDCGEASKOIYQwQMQxhBAGWOXf/6F/WWWVtssuu7SXvOQlbaedduqRIYSwMnPMMce0z3/+8+2QQw5pRx55ZNtggw2WxEwQx3XXXbdttdVW/TOEEFZ2brjhhnb11Ve3l73sZf8jjo04wteEhISEe2N49atf/e9bbrlliRr+P+7xHEMIIfx/ckImhBD+h9b+Dw7mX4MPmPbDAAAAAElFTkSuQmCC;" vertex="1" parent="1">
                    <mxGeometry x="40" y="450" width="327" height="225" as="geometry"/>
                </mxCell>
            </root>
        </mxGraphModel>
    </diagram>
</mxfile>